<svg xmlns="http://www.w3.org/2000/svg" viewBox="0 0 97.68 29.33"><defs><style>.cls-1{fill:#ebb0ff;}.cls-2{fill:#d979ff;}.cls-3{fill:#92f0ed;}.cls-4{fill:#54e2dc;}.cls-5{fill:#e70006;}.cls-6{fill:#c50006;}.cls-7{fill:#840006;}.cls-8{fill:#d50006;}.cls-9{fill:#4c0005;}</style></defs><g id="Layer_2" data-name="Layer 2"><g id="Layer_1-2" data-name="Layer 1"><polyline class="cls-1" points="48.8 9.78 39.06 9.78 39.06 19.55 48.8 19.55 48.8 9.78"/><polyline class="cls-1" points="58.59 19.55 48.8 19.55 48.8 29.33 68.35 29.33 58.57 29.33 58.57 19.57 58.59 19.55"/><polyline class="cls-2" points="48.8 19.55 39.06 19.55 39.06 29.33 39.02 29.33 48.8 29.33 48.8 19.55"/><polyline class="cls-1" points="68.35 0 39.02 0 48.8 0 48.8 9.78 68.35 9.78 68.35 0"/><polyline class="cls-2" points="48.8 0 39.02 0 39.02 4.84 39.06 4.89 39.02 4.93 39.02 9.78 39.06 9.78 48.8 9.78 48.8 0"/><polyline class="cls-1" points="68.35 9.78 68.35 9.78 58.59 19.55 68.35 19.55 68.35 29.33 68.35 9.78"/><polyline class="cls-2" points="68.35 19.55 58.59 19.55 58.57 19.57 58.57 29.33 68.35 29.33 68.35 19.55"/><polyline class="cls-3" points="9.78 0 0 0 0 29.33 9.78 29.33 9.78 19.55 0 19.55 0 9.78 9.78 9.78 9.78 0"/><polyline class="cls-3" points="19.55 9.78 9.78 9.78 9.78 19.55 19.55 19.55 19.55 9.78"/><polyline class="cls-4" points="9.78 9.78 0 9.78 0 19.55 9.78 19.55 9.78 9.78"/><path class="cls-3" d="M29.29,19.55H19.55v9.78h9.74V19.55M29.33,0H19.55V9.78h9.78V4.93l0,0,0,0V0"/><polyline class="cls-4" points="29.29 9.78 19.55 9.78 19.55 19.55 29.29 19.55 29.29 9.78"/><polyline class="cls-3" points="78.13 0 68.35 0 68.35 29.33 78.13 29.33 78.13 19.55 68.35 19.55 68.35 9.78 78.13 9.78 78.13 0"/><polyline class="cls-3" points="87.91 9.78 78.13 9.78 78.13 19.55 87.91 19.55 87.91 9.78"/><polyline class="cls-4" points="78.13 9.78 68.35 9.78 68.35 19.55 78.13 19.55 78.13 9.78"/><polyline class="cls-3" points="97.68 0 87.91 0 87.91 9.78 97.68 9.78 97.68 19.55 87.91 19.55 87.91 29.33 97.68 29.33 97.68 0"/><polyline class="cls-4" points="97.68 9.78 87.91 9.78 87.91 19.55 97.68 19.55 97.68 9.78"/><polyline class="cls-5" points="34.18 0 29.33 4.84 29.33 4.93 34.18 9.78 39.02 4.93 39.02 4.84 34.18 0"/><polyline class="cls-6" points="39.02 4.84 39.02 4.93 39.06 4.89 39.02 4.84"/><polyline class="cls-7" points="29.33 4.84 29.29 4.89 29.33 4.93 29.33 4.84"/><polyline class="cls-5" points="39.02 9.78 34.18 9.78 29.33 9.78 29.33 29.33 39.02 29.33 39.02 9.78"/><polyline class="cls-8" points="39.06 9.78 39.02 9.78 39.02 29.33 39.02 19.55 39.06 19.55 39.06 9.78"/><polyline class="cls-6" points="39.06 19.55 39.02 19.55 39.02 29.33 39.06 29.33 39.06 19.55"/><polyline class="cls-7" points="29.33 9.78 29.29 9.78 29.33 9.78 29.33 19.55 29.29 19.55 29.29 29.33 29.33 29.33 29.33 9.78"/><polyline class="cls-9" points="29.33 9.78 29.29 9.78 29.29 19.55 29.33 19.55 29.33 9.78"/></g></g></svg>